# xmcd CD database file
#
# Track frame offsets:
#	150
#	11954
#	37024
#	61621
#	90848
#	109369
#	130551
#	137704
#	145476
#	166020
#	196673
#
# Disc length: 2648 seconds
#
# Revision: 1
# Processed by: cddbd v1.5.2PL0 Copyright (c) Steve Scherf et al.
# Submitted via: CDex 1.82
#
DISCID=8b0a560b
DTITLE=Baaba - Con Gas!
DYEAR=2001
DGENRE=Jazz
TTITLE0=Pies
TTITLE1=j5
TTITLE2=krema
TTITLE3=buda
TTITLE4=on
TTITLE5=manekin
TTITLE6=mgid
TTITLE7=nieszcz [na deszcz]
TTITLE8=klochy
TTITLE9=jeden
TTITLE10=well
EXTD=YEAR: 2001
EXTT0=
EXTT1=
EXTT2=
EXTT3=
EXTT4=
EXTT5=
EXTT6=
EXTT7=
EXTT8=
EXTT9=
EXTT10=
PLAYORDER=
